<?xml version="1.0" encoding="UTF-8" standalone="no"?><!DOCTYPE svg PUBLIC "-//W3C//DTD SVG 1.1//EN" "http://www.w3.org/Graphics/SVG/1.1/DTD/svg11.dtd"><svg width="100%" height="100%" viewBox="0 0 3581 1179" version="1.1" xmlns="http://www.w3.org/2000/svg" xmlns:xlink="http://www.w3.org/1999/xlink" xml:space="preserve" xmlns:serif="http://www.serif.com/" style="fill-rule:evenodd;clip-rule:evenodd;stroke-linecap:round;stroke-linejoin:round;stroke-miterlimit:1.5;"><rect id="Artboard1" x="0" y="0" width="3580.46" height="1178.16" style="fill:none;"/><path d="M2003.95,561.949c-9.408,5.987 -12.185,18.487 -6.197,27.896l139.487,219.168c5.988,9.408 18.488,12.185 27.896,6.198l34.093,-21.699c9.409,-5.988 12.186,-18.487 6.198,-27.896l-139.488,-219.168c-5.987,-9.409 -18.487,-12.186 -27.896,-6.198l-34.093,21.699Z" style="fill:#aaa7db;stroke:#003b66;stroke-width:35.26px;"/><path d="M2168.86,310.692c0,-15.983 -12.976,-28.96 -28.96,-28.96l-219.164,0c-15.984,0 -28.96,12.977 -28.96,28.96l-0,270.313c-0,15.984 12.976,28.96 28.96,28.96l219.164,0c15.984,0 28.96,-12.976 28.96,-28.96l0,-270.313Z" style="fill:#cfff8a;stroke:#003b66;stroke-width:35.26px;"/><path d="M1971.33,304.18c-0,-10.82 -8.785,-19.604 -19.605,-19.604l-39.208,0c-10.82,0 -19.605,8.784 -19.605,19.604l0,538.818c0,10.82 8.785,19.605 19.605,19.605l39.208,-0c10.82,-0 19.605,-8.785 19.605,-19.605l-0,-538.818Z" style="fill:#f5436c;stroke:#003b66;stroke-width:35.26px;"/><path d="M1229.95,263.951c0,-10.82 -8.784,-19.605 -19.604,-19.605l-39.209,0c-10.82,0 -19.604,8.785 -19.604,19.605l-0,538.817c-0,10.82 8.784,19.605 19.604,19.605l39.209,-0c10.82,-0 19.604,-8.785 19.604,-19.605l0,-538.817Z" style="fill:#f5436c;stroke:#003b66;stroke-width:35.26px;"/><path d="M2858.68,746.981c13.936,0 25.25,-11.314 25.25,-25.25l0,-50.5c0,-13.935 -11.314,-25.25 -25.25,-25.25l-395.243,0c-13.936,0 -25.25,11.315 -25.25,25.25l-0,50.5c-0,13.936 11.314,25.25 25.25,25.25l395.243,0Z" style="fill:#b2dba7;stroke:#003b66;stroke-width:35.26px;"/><path d="M2695.28,356.682l-55.863,14.968l134.951,503.645l55.863,-14.969l-134.951,-503.644Z" style="fill:#dba7a7;stroke:#003b66;stroke-width:35.26px;"/><rect x="949.09" y="428.172" width="81.522" height="413.133" style="fill:#dba7a7;stroke:#003b66;stroke-width:35.26px;"/><path d="M2720.85,357.208c3.728,-9.979 -1.346,-21.106 -11.325,-24.834l-36.159,-13.51c-9.978,-3.728 -21.106,1.347 -24.834,11.325l-282.931,757.3c-3.727,9.978 1.347,21.106 11.325,24.834l36.16,13.509c9.978,3.728 21.106,-1.346 24.834,-11.325l282.93,-757.299Z" style="fill:#b6a7db;stroke:#003b66;stroke-width:35.26px;"/><path d="M1023.45,461.545c-5.592,-9.687 -17.997,-13.01 -27.683,-7.418l-35.1,20.265c-9.687,5.593 -13.01,17.997 -7.418,27.683l178.738,309.583c5.592,9.686 17.996,13.01 27.683,7.418l35.1,-20.266c9.686,-5.592 13.01,-17.996 7.418,-27.683l-178.738,-309.582Z" style="fill:#b6a7db;stroke:#003b66;stroke-width:35.26px;"/><path d="M2409.39,583.462c0,-10.772 -8.745,-19.517 -19.516,-19.517l-79.723,0c-10.772,0 -19.517,8.745 -19.517,19.517l0,39.033c0,10.772 8.745,19.517 19.517,19.517l79.723,-0c10.771,-0 19.516,-8.745 19.516,-19.517l0,-39.033Z" style="fill:#68c477;stroke:#003b66;stroke-width:35.26px;"/><path d="M2331.17,390.226c-0,-10.445 -8.48,-18.925 -18.925,-18.925l-37.851,0c-10.445,0 -18.925,8.48 -18.925,18.925l-0,423.848c-0,10.445 8.48,18.925 18.925,18.925l37.851,0c10.445,0 18.925,-8.48 18.925,-18.925l-0,-423.848Z" style="fill:#b2dba7;stroke:#003b66;stroke-width:35.26px;"/><path d="M2464.98,780.64c0,-9.793 -7.95,-17.743 -17.742,-17.743l-174.744,0c-9.792,0 -17.742,7.95 -17.742,17.743l-0,35.485c-0,9.792 7.95,17.742 17.742,17.742l174.744,0c9.792,0 17.742,-7.95 17.742,-17.742l0,-35.485Z" style="fill:#2bdaff;stroke:#003b66;stroke-width:35.26px;"/><path d="M2436.09,393.292c-0,-12.208 -9.911,-22.119 -22.119,-22.119l-135.04,0c-12.208,0 -22.119,9.911 -22.119,22.119l0,44.238c0,12.208 9.911,22.119 22.119,22.119l135.04,-0c12.208,-0 22.119,-9.911 22.119,-22.119l-0,-44.238Z" style="fill:#872dc3;stroke:#003b66;stroke-width:35.26px;"/><path d="M1428.84,83.911c-5.856,-5.276 -14.893,-4.807 -20.17,1.049l-80.13,88.917c-5.277,5.855 -4.807,14.893 1.049,20.169l21.218,19.122c5.855,5.277 14.893,4.807 20.17,-1.049l80.129,-88.916c5.277,-5.856 4.807,-14.894 -1.048,-20.17l-21.218,-19.122Z" style="fill:#dba7c9;stroke:#003b66;stroke-width:35.26px;"/><path d="M425.096,210.924c-0,-18.226 -14.798,-33.024 -33.025,-33.024l-249.924,-0c-18.227,-0 -33.025,14.798 -33.025,33.024l0,617.187c0,18.227 14.798,33.025 33.025,33.025l249.924,-0c18.227,-0 33.025,-14.798 33.025,-33.025l-0,-617.187Z" style="fill:#ffdb8a;stroke:#003b66;stroke-width:34.11px;"/><path d="M3146.21,320.863c0,-11.615 -9.43,-21.045 -21.046,-21.045l-159.272,-0c-11.616,-0 -21.046,9.43 -21.046,21.045l-0,393.322c-0,11.616 9.43,21.046 21.046,21.046l159.272,0c11.616,0 21.046,-9.43 21.046,-21.046l0,-393.322Z" style="fill:#ffdb8a;stroke:#003b66;stroke-width:34.11px;"/><rect x="84.026" y="178.676" width="114.439" height="683.926" style="fill:#f58643;stroke:#003b66;stroke-width:35.26px;"/><rect x="2928.85" y="300.312" width="72.93" height="435.853" style="fill:#f58643;stroke:#003b66;stroke-width:35.26px;"/><path d="M873.215,492.183c0,-53.363 -43.324,-96.687 -96.687,-96.687l-193.375,-0c-53.364,-0 -96.688,43.324 -96.688,96.687l-0,267.985c-0,53.363 43.324,96.688 96.688,96.688l193.375,-0c53.363,-0 96.687,-43.325 96.687,-96.688l0,-267.985Z" style="fill:#f543ca;stroke:#003b66;stroke-width:35.26px;"/><path d="M1476.59,264.202c-0,-11.711 -9.509,-21.219 -21.22,-21.219l-42.44,-0c-11.711,-0 -21.219,9.508 -21.219,21.219l-0,559.94c-0,11.711 9.508,21.219 21.219,21.219l42.44,0c11.711,0 21.22,-9.508 21.22,-21.219l-0,-559.94Z" style="fill:#a7d2db;stroke:#003b66;stroke-width:35.26px;"/><path d="M1547.71,362.061c-1.985,-8.376 -10.398,-13.564 -18.774,-11.578l-180.259,42.737c-8.376,1.986 -13.564,10.399 -11.578,18.775l7.196,30.353c1.986,8.376 10.399,13.565 18.775,11.579l180.258,-42.738c8.377,-1.985 13.565,-10.398 11.579,-18.774l-7.197,-30.354Z" style="fill:#aaa7db;stroke:#003b66;stroke-width:35.26px;"/><path d="M1725.86,1115.72l275.953,-134.809l-561.182,0l285.229,134.809Z" style="fill:#f5436c;stroke:#003b66;stroke-width:34.11px;"/></svg>