<?xml version="1.0" encoding="UTF-8" standalone="no"?><!DOCTYPE svg PUBLIC "-//W3C//DTD SVG 1.1//EN" "http://www.w3.org/Graphics/SVG/1.1/DTD/svg11.dtd"><svg width="100%" height="100%" viewBox="0 0 1392 1100" version="1.1" xmlns="http://www.w3.org/2000/svg" xmlns:xlink="http://www.w3.org/1999/xlink" xml:space="preserve" xmlns:serif="http://www.serif.com/" style="fill-rule:evenodd;clip-rule:evenodd;stroke-linecap:round;stroke-linejoin:round;stroke-miterlimit:1.5;"><rect id="Artboard1" x="0" y="0" width="1391.67" height="1100" style="fill:none;"/><g><g><path d="M452.208,754.151c-0,-10.771 -8.745,-19.516 -19.517,-19.516l-79.723,-0c-10.771,-0 -19.517,8.745 -19.517,19.516l0,39.034c0,10.771 8.746,19.516 19.517,19.516l79.723,0c10.772,0 19.517,-8.745 19.517,-19.516l-0,-39.034Z" style="fill:#68c477;stroke:#003b66;stroke-width:35.26px;"/><path d="M373.983,560.916c0,-10.445 -8.48,-18.925 -18.925,-18.925l-37.851,-0c-10.445,-0 -18.925,8.48 -18.925,18.925l-0,423.848c-0,10.445 8.48,18.925 18.925,18.925l37.851,0c10.445,0 18.925,-8.48 18.925,-18.925l0,-423.848Z" style="fill:#b2dba7;stroke:#003b66;stroke-width:35.26px;"/><path d="M507.801,951.329c-0,-9.792 -7.95,-17.742 -17.743,-17.742l-174.743,-0c-9.793,-0 -17.743,7.95 -17.743,17.742l0,35.485c0,9.792 7.95,17.743 17.743,17.743l174.743,-0c9.793,-0 17.743,-7.951 17.743,-17.743l-0,-35.485Z" style="fill:#2bdaff;stroke:#003b66;stroke-width:35.26px;"/><path d="M478.91,563.982c-0,-12.208 -9.911,-22.119 -22.119,-22.119l-135.04,-0c-12.208,-0 -22.119,9.911 -22.119,22.119l0,44.237c0,12.208 9.911,22.119 22.119,22.119l135.04,0c12.208,0 22.119,-9.911 22.119,-22.119l-0,-44.237Z" style="fill:#872dc3;stroke:#003b66;stroke-width:35.26px;"/></g><g><path d="M535.834,141.325c-0,-18.934 -15.372,-34.306 -34.306,-34.306l-364.028,0c-18.934,0 -34.306,15.372 -34.306,34.306l-0,259.622c-0,18.934 15.372,34.306 34.306,34.306l364.028,-0c18.934,-0 34.306,-15.372 34.306,-34.306l-0,-259.622Z" style="fill:#ffdb8a;stroke:#003b66;stroke-width:35.26px;"/><path d="M207.756,138.843c-0,-15.995 -12.985,-28.98 -28.979,-28.98l-57.959,0c-15.994,0 -28.98,12.985 -28.98,28.98l0,836.734c0,15.994 12.986,28.98 28.98,28.98l57.959,-0c15.994,-0 28.979,-12.986 28.979,-28.98l-0,-836.734Z" style="fill:#f5436c;stroke:#003b66;stroke-width:35.26px;"/></g><g><path d="M720.592,241.867c0,-14.362 -11.66,-26.022 -26.022,-26.022l-52.045,-0c-14.362,-0 -26.022,11.66 -26.022,26.022l-0,736.667c-0,14.362 11.66,26.023 26.022,26.023l52.045,-0c14.362,-0 26.022,-11.661 26.022,-26.023l0,-736.667Z" style="fill:#a7d2db;stroke:#003b66;stroke-width:35.26px;"/><path d="M818.604,728.444c-2.573,-10.852 -13.472,-17.573 -24.323,-15l-233.524,55.366c-10.851,2.573 -17.572,13.471 -15,24.323l9.323,39.322c2.573,10.851 13.472,17.573 24.323,15l233.524,-55.366c10.851,-2.573 17.572,-13.471 15,-24.323l-9.323,-39.322Z" style="fill:#aaa7db;stroke:#003b66;stroke-width:35.26px;"/></g><g><rect x="894.764" y="254.642" width="114.439" height="749.915" style="fill:#dba7a7;stroke:#003b66;stroke-width:35.26px;"/><path d="M961.131,91.185c-8.35,-13.571 -26.148,-17.809 -39.719,-9.459l-61.378,37.766c-13.571,8.35 -17.809,26.148 -9.459,39.719l30.259,49.178c8.351,13.571 26.148,17.809 39.719,9.459l61.378,-37.766c13.571,-8.35 17.81,-26.148 9.459,-39.719l-30.259,-49.178Z" style="fill:#dba7c9;stroke:#003b66;stroke-width:35.26px;"/></g><g><path d="M1274.16,104.422c-0,-15.015 -12.19,-27.205 -27.205,-27.205l-54.41,0c-15.015,0 -27.206,12.19 -27.206,27.205l0,872.929c0,15.015 12.191,27.206 27.206,27.206l54.41,-0c15.015,-0 27.205,-12.191 27.205,-27.206l-0,-872.929Z" style="fill:#b6a7db;stroke:#003b66;stroke-width:35.26px;"/><path d="M1350.39,732.698c-0,11.612 -9.428,21.039 -21.04,21.039l-220.864,0c-11.612,0 -21.04,-9.427 -21.04,-21.039l0,-42.08c0,-11.612 9.428,-21.039 21.04,-21.039l220.864,-0c11.612,-0 21.04,9.427 21.04,21.039l-0,42.08Z" style="fill:#a7dbda;stroke:#003b66;stroke-width:35.26px;"/></g></g></svg>