<?xml version="1.0" encoding="UTF-8" standalone="no"?><!DOCTYPE svg PUBLIC "-//W3C//DTD SVG 1.1//EN" "http://www.w3.org/Graphics/SVG/1.1/DTD/svg11.dtd"><svg width="100%" height="100%" viewBox="0 0 1991 69" version="1.1" xmlns="http://www.w3.org/2000/svg" xmlns:xlink="http://www.w3.org/1999/xlink" xml:space="preserve" xmlns:serif="http://www.serif.com/" style="fill-rule:evenodd;clip-rule:evenodd;stroke-linejoin:round;stroke-miterlimit:2;"><rect id="Artboard1" x="0" y="0" width="1990.73" height="68.188" style="fill:none;"/><clipPath id="_clip1"><rect x="0" y="0" width="1990.73" height="68.188"/></clipPath><g clip-path="url(#_clip1)"><path d="M2022.33,33.625l4.327,68.208l-2042.38,0l0,-50.502c0,0 302.896,-52.807 688.006,-35.722c385.111,17.084 560.357,41.314 863.253,39.45c302.896,-1.864 447.853,-16.774 486.797,-21.434Z" style="fill:none;"/><clipPath id="_clip2"><path d="M2022.33,33.625l4.327,68.208l-2042.38,0l0,-50.502c0,0 302.896,-52.807 688.006,-35.722c385.111,17.084 560.357,41.314 863.253,39.45c302.896,-1.864 447.853,-16.774 486.797,-21.434Z"/></clipPath><g clip-path="url(#_clip2)"><path d="M2112.95,-150.384l-2149.8,-12.85l-12.621,370.78l2149.8,12.851l12.62,-370.781Z" style="fill:#fff;"/></g></g></svg>