<?xml version="1.0" encoding="UTF-8" standalone="no"?><!DOCTYPE svg PUBLIC "-//W3C//DTD SVG 1.1//EN" "http://www.w3.org/Graphics/SVG/1.1/DTD/svg11.dtd"><svg width="100%" height="100%" viewBox="0 0 1533 314" version="1.1" xmlns="http://www.w3.org/2000/svg" xmlns:xlink="http://www.w3.org/1999/xlink" xml:space="preserve" xmlns:serif="http://www.serif.com/" style="fill-rule:evenodd;clip-rule:evenodd;stroke-linejoin:round;stroke-miterlimit:2;"><rect id="Artboard1" x="0" y="0" width="1532.56" height="313.661" style="fill:none;"/><clipPath id="_clip1"><rect x="0" y="0" width="1532.56" height="313.661"/></clipPath><g clip-path="url(#_clip1)"><path d="M-18.98,178.165l-3.311,-363.442l1562.48,-0l0,269.097c0,0 -231.724,281.38 -526.345,190.345c-294.621,-91.034 -428.689,-220.138 -660.414,-210.207c-231.724,9.931 -342.62,89.379 -372.413,114.207Z" style="fill:none;"/><clipPath id="_clip2"><path d="M-18.98,178.165l-3.311,-363.442l1562.48,-0l0,269.097c0,0 -231.724,281.38 -526.345,190.345c-294.621,-91.034 -428.689,-220.138 -660.414,-210.207c-231.724,9.931 -342.62,89.379 -372.413,114.207Z"/></clipPath><g clip-path="url(#_clip2)"><path d="M-88.303,275.17l1736.01,24.763l9.655,-676.897l-1736.01,-24.762l-9.655,676.896Z" style="fill:#fff;fill-opacity:0.59;"/></g></g></svg>