<?xml version="1.0" encoding="UTF-8" standalone="no"?><!DOCTYPE svg PUBLIC "-//W3C//DTD SVG 1.1//EN" "http://www.w3.org/Graphics/SVG/1.1/DTD/svg11.dtd"><svg width="100%" height="100%" viewBox="0 0 1617 1284" version="1.1" xmlns="http://www.w3.org/2000/svg" xmlns:xlink="http://www.w3.org/1999/xlink" xml:space="preserve" xmlns:serif="http://www.serif.com/" style="fill-rule:evenodd;clip-rule:evenodd;stroke-linecap:round;stroke-linejoin:round;stroke-miterlimit:1.5;"><g><path d="M1018.58,555.228c-9.409,5.988 -12.186,18.488 -6.198,27.896l139.488,219.169c5.987,9.408 18.487,12.185 27.896,6.197l34.093,-21.698c9.408,-5.988 12.185,-18.488 6.197,-27.896l-139.487,-219.168c-5.988,-9.409 -18.488,-12.186 -27.896,-6.198l-34.093,21.698Z" style="fill:#aaa7db;stroke:#003b66;stroke-width:35.26px;"/><g><path d="M1183.49,303.972c-0,-15.983 -12.977,-28.96 -28.96,-28.96l-219.165,0c-15.983,0 -28.96,12.977 -28.96,28.96l0,270.313c0,15.984 12.977,28.96 28.96,28.96l219.165,0c15.983,0 28.96,-12.976 28.96,-28.96l-0,-270.313Z" style="fill:#cfff8a;stroke:#003b66;stroke-width:35.26px;"/><path d="M985.963,297.46c0,-10.82 -8.784,-19.604 -19.604,-19.604l-39.209,-0c-10.82,-0 -19.604,8.784 -19.604,19.604l-0,538.818c-0,10.82 8.784,19.605 19.604,19.605l39.209,-0c10.82,-0 19.604,-8.785 19.604,-19.605l0,-538.818Z" style="fill:#f5436c;stroke:#003b66;stroke-width:35.26px;"/></g><g><path d="M811.246,703.469c19.643,-0 35.592,-15.949 35.592,-35.592l-0,-71.184c-0,-19.644 -15.949,-35.592 -35.592,-35.592l-557.129,-0c-19.644,-0 -35.592,15.948 -35.592,35.592l0,71.184c0,19.643 15.948,35.592 35.592,35.592l557.129,-0Z" style="fill:#b2dba7;stroke:#003b66;stroke-width:35.26px;"/><path d="M580.926,153.309l-78.745,21.099l190.225,709.929l78.744,-21.1l-190.224,-709.928Z" style="fill:#dba7a7;stroke:#003b66;stroke-width:35.26px;"/><path d="M616.954,154.05c5.255,-14.065 -1.898,-29.751 -15.963,-35.005l-50.969,-19.043c-14.066,-5.255 -29.751,1.898 -35.006,15.964l-398.814,1067.48c-5.255,14.066 1.898,29.751 15.963,35.006l50.969,19.042c14.066,5.255 29.751,-1.898 35.006,-15.963l398.814,-1067.48Z" style="fill:#b6a7db;stroke:#003b66;stroke-width:35.26px;"/></g><g><path d="M1441.16,93.193c0,-14.362 -11.66,-26.022 -26.022,-26.022l-52.045,-0c-14.362,-0 -26.022,11.66 -26.022,26.022l-0,736.667c-0,14.362 11.66,26.023 26.022,26.023l52.045,-0c14.362,-0 26.022,-11.661 26.022,-26.023l0,-736.667Z" style="fill:#d8dba7;stroke:#003b66;stroke-width:35.26px;"/><path d="M1539.17,229.77c-2.573,-10.852 -13.472,-17.573 -24.323,-15l-233.524,55.366c-10.851,2.573 -17.572,13.471 -15,24.323l9.323,39.322c2.573,10.851 13.472,17.573 24.323,15l233.524,-55.366c10.851,-2.573 17.572,-13.471 15,-24.323l-9.323,-39.322Z" style="fill:#dbb8a7;stroke:#003b66;stroke-width:35.26px;"/></g></g><rect id="Artboard1" x="0" y="-0" width="1616.84" height="1283.55" style="fill:none;"/></svg>