<?xml version="1.0" encoding="UTF-8" standalone="no"?><!DOCTYPE svg PUBLIC "-//W3C//DTD SVG 1.1//EN" "http://www.w3.org/Graphics/SVG/1.1/DTD/svg11.dtd"><svg width="100%" height="100%" viewBox="0 0 1594 1311" version="1.1" xmlns="http://www.w3.org/2000/svg" xmlns:xlink="http://www.w3.org/1999/xlink" xml:space="preserve" xmlns:serif="http://www.serif.com/" style="fill-rule:evenodd;clip-rule:evenodd;stroke-linecap:round;stroke-linejoin:round;stroke-miterlimit:1.5;"><g><path d="M979.55,595.3c-9.408,5.988 -12.185,18.488 -6.197,27.896l139.487,219.168c5.988,9.409 18.488,12.186 27.896,6.198l34.093,-21.699c9.409,-5.987 12.186,-18.487 6.198,-27.895l-139.487,-219.169c-5.988,-9.408 -18.488,-12.185 -27.896,-6.197l-34.094,21.698Z" style="fill:#aaa7db;stroke:#003b66;stroke-width:35.26px;"/><g><path d="M1144.45,344.044c0,-15.984 -12.976,-28.96 -28.96,-28.96l-219.164,-0c-15.984,-0 -28.96,12.976 -28.96,28.96l-0,270.313c-0,15.983 12.976,28.96 28.96,28.96l219.164,-0c15.984,-0 28.96,-12.977 28.96,-28.96l0,-270.313Z" style="fill:#cfff8a;stroke:#003b66;stroke-width:35.26px;"/><path d="M946.93,337.532c0,-10.82 -8.784,-19.605 -19.604,-19.605l-39.209,0c-10.82,0 -19.605,8.785 -19.605,19.605l0,538.818c0,10.82 8.785,19.604 19.605,19.604l39.209,0c10.82,0 19.604,-8.784 19.604,-19.604l0,-538.818Z" style="fill:#f5436c;stroke:#003b66;stroke-width:35.26px;"/></g><g><path d="M772.212,743.54c19.644,0 35.592,-15.948 35.592,-35.592l0,-71.184c0,-19.644 -15.948,-35.592 -35.592,-35.592l-557.128,0c-19.644,0 -35.592,15.948 -35.592,35.592l-0,71.184c-0,19.644 15.948,35.592 35.592,35.592l557.128,0Z" style="fill:#b2dba7;stroke:#003b66;stroke-width:35.26px;"/><path d="M541.892,193.38l-78.744,21.1l190.224,709.928l78.745,-21.099l-190.225,-709.929Z" style="fill:#dba7a7;stroke:#003b66;stroke-width:35.26px;"/><path d="M577.921,194.122c5.255,-14.066 -1.898,-29.751 -15.964,-35.006l-50.969,-19.042c-14.065,-5.255 -29.751,1.898 -35.006,15.963l-398.814,1067.48c-5.255,14.065 1.898,29.751 15.964,35.006l50.969,19.042c14.065,5.255 29.751,-1.898 35.006,-15.964l398.814,-1067.48Z" style="fill:#b6a7db;stroke:#003b66;stroke-width:35.26px;"/></g><g><path d="M1402.13,133.265c-0,-14.362 -11.661,-26.023 -26.023,-26.023l-52.044,0c-14.362,0 -26.023,11.661 -26.023,26.023l0,736.667c0,14.362 11.661,26.022 26.023,26.022l52.044,0c14.362,0 26.023,-11.66 26.023,-26.022l-0,-736.667Z" style="fill:#d8dba7;stroke:#003b66;stroke-width:35.26px;"/><path d="M1500.14,269.841c-2.573,-10.851 -13.471,-17.572 -24.323,-15l-233.523,55.366c-10.852,2.573 -17.573,13.472 -15,24.323l9.323,39.323c2.573,10.851 13.471,17.572 24.323,14.999l233.523,-55.365c10.852,-2.573 17.573,-13.472 15,-24.323l-9.323,-39.323Z" style="fill:#dbb8a7;stroke:#003b66;stroke-width:35.26px;"/></g></g><rect id="Artboard1" x="0" y="-0" width="1593.22" height="1310.18" style="fill:none;"/></svg>