<?xml version="1.0" encoding="UTF-8" standalone="no"?><!DOCTYPE svg PUBLIC "-//W3C//DTD SVG 1.1//EN" "http://www.w3.org/Graphics/SVG/1.1/DTD/svg11.dtd"><svg width="100%" height="100%" viewBox="0 0 6667 3750" version="1.1" xmlns="http://www.w3.org/2000/svg" xmlns:xlink="http://www.w3.org/1999/xlink" xml:space="preserve" xmlns:serif="http://www.serif.com/" style="fill-rule:evenodd;clip-rule:evenodd;stroke-linecap:round;stroke-linejoin:round;stroke-miterlimit:1.5;"><g><path d="M5271.63,2883.07c-9.409,5.988 -12.186,18.488 -6.198,27.896l139.488,219.169c5.987,9.408 18.487,12.185 27.896,6.197l34.093,-21.698c9.408,-5.988 12.185,-18.488 6.197,-27.896l-139.487,-219.169c-5.988,-9.408 -18.488,-12.185 -27.896,-6.197l-34.093,21.698Z" style="fill:#aaa7db;stroke:#003b66;stroke-width:35.26px;"/><g><path d="M5436.53,2631.81c-0,-15.984 -12.977,-28.96 -28.96,-28.96l-219.165,-0c-15.983,-0 -28.96,12.976 -28.96,28.96l0,270.313c0,15.983 12.977,28.96 28.96,28.96l219.165,0c15.983,0 28.96,-12.977 28.96,-28.96l-0,-270.313Z" style="fill:#cfff8a;stroke:#003b66;stroke-width:35.26px;"/><path d="M5239.01,2625.3c-0,-10.82 -8.785,-19.604 -19.605,-19.604l-39.209,-0c-10.82,-0 -19.604,8.784 -19.604,19.604l-0,538.818c-0,10.82 8.784,19.604 19.604,19.604l39.209,0c10.82,0 19.605,-8.784 19.605,-19.604l-0,-538.818Z" style="fill:#f5436c;stroke:#003b66;stroke-width:35.26px;"/></g><g><path d="M5064.29,3031.31c19.643,0 35.592,-15.948 35.592,-35.592l-0,-71.184c-0,-19.643 -15.949,-35.592 -35.592,-35.592l-557.129,0c-19.644,0 -35.592,15.949 -35.592,35.592l0,71.184c0,19.644 15.948,35.592 35.592,35.592l557.129,0Z" style="fill:#b2dba7;stroke:#003b66;stroke-width:35.26px;"/><path d="M4833.97,2481.15l-78.745,21.099l190.225,709.928l78.744,-21.099l-190.224,-709.928Z" style="fill:#dba7a7;stroke:#003b66;stroke-width:35.26px;"/><path d="M4870,2481.89c5.255,-14.065 -1.898,-29.751 -15.963,-35.006l-50.969,-19.042c-14.066,-5.255 -29.751,1.898 -35.006,15.963l-398.814,1067.48c-5.255,14.065 1.898,29.751 15.963,35.006l50.969,19.042c14.066,5.255 29.751,-1.898 35.006,-15.963l398.814,-1067.48Z" style="fill:#b6a7db;stroke:#003b66;stroke-width:35.26px;"/></g><g><path d="M5694.2,2421.03c0,-14.362 -11.66,-26.022 -26.022,-26.022l-52.045,-0c-14.362,-0 -26.022,11.66 -26.022,26.022l-0,736.667c-0,14.362 11.66,26.022 26.022,26.022l52.045,0c14.362,0 26.022,-11.66 26.022,-26.022l0,-736.667Z" style="fill:#d8dba7;stroke:#003b66;stroke-width:35.26px;"/><path d="M5792.22,2557.61c-2.573,-10.852 -13.472,-17.573 -24.323,-15l-233.524,55.366c-10.851,2.572 -17.572,13.471 -15,24.322l9.323,39.323c2.573,10.851 13.472,17.572 24.323,15l233.524,-55.366c10.851,-2.573 17.572,-13.472 15,-24.323l-9.323,-39.322Z" style="fill:#dbb8a7;stroke:#003b66;stroke-width:35.26px;"/></g></g><g><g><path d="M1056.37,2933.32c0,-10.772 -8.745,-19.517 -19.516,-19.517l-79.723,0c-10.772,0 -19.517,8.745 -19.517,19.517l0,39.033c0,10.772 8.745,19.517 19.517,19.517l79.723,0c10.771,0 19.516,-8.745 19.516,-19.517l0,-39.033Z" style="fill:#68c477;stroke:#003b66;stroke-width:35.26px;"/><path d="M978.15,2740.08c-0,-10.445 -8.48,-18.926 -18.926,-18.926l-37.85,0c-10.445,0 -18.925,8.481 -18.925,18.926l-0,423.847c-0,10.446 8.48,18.926 18.925,18.926l37.85,-0c10.446,-0 18.926,-8.48 18.926,-18.926l-0,-423.847Z" style="fill:#b2dba7;stroke:#003b66;stroke-width:35.26px;"/><path d="M1111.97,3130.5c0,-9.792 -7.95,-17.743 -17.742,-17.743l-174.744,0c-9.792,0 -17.742,7.951 -17.742,17.743l-0,35.485c-0,9.792 7.95,17.742 17.742,17.742l174.744,0c9.792,0 17.742,-7.95 17.742,-17.742l0,-35.485Z" style="fill:#2bdaff;stroke:#003b66;stroke-width:35.26px;"/><path d="M1083.08,2743.15c-0,-12.208 -9.912,-22.119 -22.119,-22.119l-135.04,0c-12.208,0 -22.119,9.911 -22.119,22.119l-0,44.238c-0,12.208 9.911,22.119 22.119,22.119l135.04,0c12.207,0 22.119,-9.911 22.119,-22.119l-0,-44.238Z" style="fill:#872dc3;stroke:#003b66;stroke-width:35.26px;"/></g><g><path d="M1140,2320.49c0,-18.934 -15.372,-34.306 -34.305,-34.306l-364.029,0c-18.934,0 -34.306,15.372 -34.306,34.306l0,259.621c0,18.934 15.372,34.306 34.306,34.306l364.029,0c18.933,0 34.305,-15.372 34.305,-34.306l0,-259.621Z" style="fill:#ffdb8a;stroke:#003b66;stroke-width:35.26px;"/><path d="M811.923,2318.01c-0,-15.994 -12.986,-28.979 -28.98,-28.979l-57.959,-0c-15.994,-0 -28.979,12.985 -28.979,28.979l0,836.735c0,15.994 12.985,28.979 28.979,28.979l57.959,0c15.994,0 28.98,-12.985 28.98,-28.979l-0,-836.735Z" style="fill:#f5436c;stroke:#003b66;stroke-width:35.26px;"/></g><g><path d="M1324.76,2421.03c-0,-14.362 -11.66,-26.022 -26.023,-26.022l-52.044,-0c-14.362,-0 -26.022,11.66 -26.022,26.022l-0,736.667c-0,14.362 11.66,26.022 26.022,26.022l52.044,0c14.363,0 26.023,-11.66 26.023,-26.022l-0,-736.667Z" style="fill:#a7d2db;stroke:#003b66;stroke-width:35.26px;"/><path d="M1422.77,2907.61c-2.572,-10.851 -13.471,-17.572 -24.322,-14.999l-233.524,55.365c-10.852,2.573 -17.573,13.472 -15,24.323l9.323,39.323c2.573,10.851 13.471,17.572 24.323,15l233.523,-55.366c10.852,-2.573 17.573,-13.472 15,-24.323l-9.323,-39.323Z" style="fill:#aaa7db;stroke:#003b66;stroke-width:35.26px;"/></g><g><rect x="1498.93" y="2433.81" width="114.439" height="749.915" style="fill:#dba7a7;stroke:#003b66;stroke-width:35.26px;"/><path d="M1565.3,2270.35c-8.351,-13.571 -26.148,-17.81 -39.719,-9.459l-61.378,37.766c-13.571,8.35 -17.81,26.147 -9.459,39.718l30.259,49.178c8.35,13.571 26.148,17.81 39.719,9.46l61.378,-37.766c13.571,-8.351 17.809,-26.148 9.459,-39.719l-30.259,-49.178Z" style="fill:#dba7c9;stroke:#003b66;stroke-width:35.26px;"/></g><g><path d="M1878.32,2283.59c-0,-15.015 -12.191,-27.205 -27.205,-27.205l-54.411,-0c-15.015,-0 -27.205,12.19 -27.205,27.205l0,872.929c0,15.015 12.19,27.205 27.205,27.205l54.411,0c15.014,0 27.205,-12.19 27.205,-27.205l-0,-872.929Z" style="fill:#b6a7db;stroke:#003b66;stroke-width:35.26px;"/><path d="M1954.56,2911.86c0,11.612 -9.427,21.04 -21.039,21.04l-220.865,-0c-11.612,-0 -21.039,-9.428 -21.039,-21.04l-0,-42.079c-0,-11.612 9.427,-21.039 21.039,-21.039l220.865,-0c11.612,-0 21.039,9.427 21.039,21.039l0,42.079Z" style="fill:#a7dbda;stroke:#003b66;stroke-width:35.26px;"/></g></g><g><g><path d="M3577.83,2532.05c0,-18.227 -14.798,-33.025 -33.024,-33.025l-249.925,0c-18.227,0 -33.024,14.798 -33.024,33.025l-0,617.187c-0,18.227 14.797,33.024 33.024,33.024l249.925,0c18.226,0 33.024,-14.797 33.024,-33.024l0,-617.187Z" style="fill:#ffdb8a;stroke:#003b66;stroke-width:34.11px;"/><rect x="3236.76" y="2499.8" width="114.439" height="683.926" style="fill:#f58643;stroke:#003b66;stroke-width:35.26px;"/></g><g><path d="M4198.36,2819.05c0,-53.363 -43.324,-96.688 -96.688,-96.688l-193.375,0c-53.363,0 -96.687,43.325 -96.687,96.688l-0,267.985c-0,53.363 43.324,96.687 96.687,96.687l193.375,0c53.364,0 96.688,-43.324 96.688,-96.687l0,-267.985Z" style="fill:#f543ca;stroke:#003b66;stroke-width:35.26px;"/></g><g><path d="M2966.4,2834.33c0,-8.902 -7.227,-16.13 -16.129,-16.13l-32.258,0c-8.902,0 -16.129,7.228 -16.129,16.13l-0,333.268c-0,8.902 7.227,16.129 16.129,16.129l32.258,0c8.902,0 16.129,-7.227 16.129,-16.129l0,-333.268Z" style="fill:#f5436c;stroke:#003b66;stroke-width:35.26px;"/><path d="M3165.03,2907.3c-0,-9.247 -7.508,-16.754 -16.755,-16.754l-33.508,-0c-9.247,-0 -16.755,7.507 -16.755,16.754l0,259.669c0,9.247 7.508,16.754 16.755,16.754l33.508,0c9.247,0 16.755,-7.507 16.755,-16.754l-0,-259.669Z" style="fill:#f5436c;stroke:#003b66;stroke-width:35.26px;"/><path d="M3156.63,3161.64c0,12.16 -9.872,22.033 -22.033,22.033l-206.306,0c-12.16,0 -22.033,-9.873 -22.033,-22.033l-0,-44.067c-0,-12.16 9.873,-22.033 22.033,-22.033l206.306,0c12.161,0 22.033,9.873 22.033,22.033l0,44.067Z" style="fill:#a7dbda;stroke:#003b66;stroke-width:35.26px;"/></g><g><path d="M2303.76,2471.63c0,-24.173 -19.625,-43.798 -43.798,-43.798l-87.598,-0c-24.173,-0 -43.798,19.625 -43.798,43.798l-0,338.593c-0,24.174 19.625,43.799 43.798,43.799l87.598,0c24.173,0 43.798,-19.625 43.798,-43.799l0,-338.593Z" style="fill:#f5436c;stroke:#003b66;stroke-width:35.26px;"/><path d="M2640.02,2866.28c-0,-10.178 -16.559,-18.442 -36.954,-18.442l-73.909,-0c-20.395,-0 -36.954,8.264 -36.954,18.442l0,294.293c0,10.179 16.559,18.443 36.954,18.443l73.909,-0c20.395,-0 36.954,-8.264 36.954,-18.443l-0,-294.293Z" style="fill:#b2dba7;stroke:#003b66;stroke-width:35.26px;"/><path d="M2134.09,2755.68l-0,65.786c-0,19.52 15.825,35.345 35.345,35.345c114.872,0 470.299,0 470.299,0l0,-3.937c0,-53.679 -43.515,-97.194 -97.194,-97.194c-146.878,0 -408.45,0 -408.45,0Z" style="fill:#a7d2db;stroke:#003b66;stroke-width:35.26px;"/><path d="M2610.48,2546.5l0,-118.704l-479.614,0l0,118.704l479.614,-0Z" style="fill:#dba7a7;stroke:#003b66;stroke-width:35.26px;"/><path d="M2149.45,3077.99c-14.206,0 -25.739,11.844 -25.739,26.432l0,52.864c0,14.589 11.533,26.432 25.739,26.432l449.627,0c14.205,0 25.738,-11.843 25.738,-26.432l-0,-52.864c-0,-14.588 -11.533,-26.432 -25.738,-26.432l-449.627,0Z" style="fill:#b6a7db;stroke:#003b66;stroke-width:35.26px;"/></g><g><path d="M2813.22,2602.56c-0,-11.711 -9.509,-21.219 -21.22,-21.219l-42.44,-0c-11.711,-0 -21.219,9.508 -21.219,21.219l-0,559.94c-0,11.711 9.508,21.219 21.219,21.219l42.44,0c11.711,0 21.22,-9.508 21.22,-21.219l-0,-559.94Z" style="fill:#a7d2db;stroke:#003b66;stroke-width:35.26px;"/><path d="M2884.35,2700.42c-1.985,-8.376 -10.398,-13.564 -18.774,-11.578l-180.259,42.737c-8.376,1.986 -13.564,10.399 -11.578,18.775l7.196,30.353c1.986,8.376 10.399,13.565 18.775,11.579l180.258,-42.738c8.377,-1.985 13.565,-10.398 11.579,-18.774l-7.197,-30.354Z" style="fill:#aaa7db;stroke:#003b66;stroke-width:35.26px;"/></g><g><path d="M3739.76,2388.8c0,-8.691 -7.056,-15.746 -15.746,-15.746l-31.494,-0c-8.691,-0 -15.747,7.055 -15.747,15.746l0,779.18c0,8.69 7.056,15.746 15.747,15.746l31.494,0c8.69,0 15.746,-7.056 15.746,-15.746l0,-779.18Z" style="fill:#b6a7db;stroke:#003b66;stroke-width:35.26px;"/></g></g><path d="M3175.34,3554.05l363.562,-272.74l-739.344,0l375.782,272.74Z" style="fill:#f5436c;stroke:#003b66;stroke-width:34.11px;"/></svg>