<?xml version="1.0" encoding="UTF-8" standalone="no"?><!DOCTYPE svg PUBLIC "-//W3C//DTD SVG 1.1//EN" "http://www.w3.org/Graphics/SVG/1.1/DTD/svg11.dtd"><svg width="100%" height="100%" viewBox="0 0 1430 1110" version="1.1" xmlns="http://www.w3.org/2000/svg" xmlns:xlink="http://www.w3.org/1999/xlink" xml:space="preserve" xmlns:serif="http://www.serif.com/" style="fill-rule:evenodd;clip-rule:evenodd;stroke-linecap:round;stroke-linejoin:round;stroke-miterlimit:1.5;"><rect id="Artboard1" x="0" y="0" width="1429.77" height="1109.19" style="fill:none;"/><g><g><path d="M462.026,785.64c0,-10.772 -8.745,-19.517 -19.517,-19.517l-79.723,0c-10.771,0 -19.516,8.745 -19.516,19.517l-0,39.033c-0,10.772 8.745,19.517 19.516,19.517l79.723,0c10.772,0 19.517,-8.745 19.517,-19.517l0,-39.033Z" style="fill:#68c477;stroke:#003b66;stroke-width:35.26px;"/><path d="M383.801,592.405c0,-10.445 -8.48,-18.926 -18.925,-18.926l-37.85,0c-10.446,0 -18.926,8.481 -18.926,18.926l0,423.847c0,10.446 8.48,18.926 18.926,18.926l37.85,-0c10.445,-0 18.925,-8.48 18.925,-18.926l0,-423.847Z" style="fill:#b2dba7;stroke:#003b66;stroke-width:35.26px;"/><path d="M517.619,982.818c-0,-9.792 -7.95,-17.743 -17.742,-17.743l-174.744,0c-9.792,0 -17.743,7.951 -17.743,17.743l0,35.485c0,9.792 7.951,17.742 17.743,17.742l174.744,0c9.792,0 17.742,-7.95 17.742,-17.742l-0,-35.485Z" style="fill:#2bdaff;stroke:#003b66;stroke-width:35.26px;"/><path d="M488.728,595.47c0,-12.208 -9.911,-22.119 -22.119,-22.119l-135.039,0c-12.208,0 -22.119,9.911 -22.119,22.119l-0,44.238c-0,12.208 9.911,22.119 22.119,22.119l135.039,0c12.208,0 22.119,-9.911 22.119,-22.119l0,-44.238Z" style="fill:#872dc3;stroke:#003b66;stroke-width:35.26px;"/></g><g><path d="M545.652,172.814c0,-18.934 -15.372,-34.306 -34.306,-34.306l-364.028,0c-18.934,0 -34.306,15.372 -34.306,34.306l-0,259.621c-0,18.934 15.372,34.306 34.306,34.306l364.028,0c18.934,0 34.306,-15.372 34.306,-34.306l0,-259.621Z" style="fill:#ffdb8a;stroke:#003b66;stroke-width:35.26px;"/><path d="M217.574,170.331c0,-15.994 -12.985,-28.979 -28.979,-28.979l-57.959,-0c-15.994,-0 -28.979,12.985 -28.979,28.979l-0,836.735c-0,15.994 12.985,28.979 28.979,28.979l57.959,0c15.994,0 28.979,-12.985 28.979,-28.979l0,-836.735Z" style="fill:#f5436c;stroke:#003b66;stroke-width:35.26px;"/></g><g><path d="M730.41,273.356c0,-14.362 -11.66,-26.022 -26.022,-26.022l-52.044,-0c-14.363,-0 -26.023,11.66 -26.023,26.022l0,736.667c0,14.362 11.66,26.022 26.023,26.022l52.044,0c14.362,0 26.022,-11.66 26.022,-26.022l0,-736.667Z" style="fill:#a7d2db;stroke:#003b66;stroke-width:35.26px;"/><path d="M828.422,759.932c-2.573,-10.851 -13.471,-17.572 -24.323,-14.999l-233.524,55.365c-10.851,2.573 -17.572,13.472 -14.999,24.323l9.323,39.323c2.572,10.851 13.471,17.572 24.322,15l233.524,-55.366c10.851,-2.573 17.573,-13.472 15,-24.323l-9.323,-39.323Z" style="fill:#aaa7db;stroke:#003b66;stroke-width:35.26px;"/></g><g><rect x="904.582" y="286.13" width="114.439" height="749.915" style="fill:#dba7a7;stroke:#003b66;stroke-width:35.26px;"/><path d="M970.949,122.674c-8.35,-13.571 -26.147,-17.81 -39.718,-9.459l-61.378,37.766c-13.571,8.35 -17.81,26.147 -9.46,39.718l30.26,49.178c8.35,13.571 26.147,17.81 39.718,9.46l61.378,-37.766c13.572,-8.351 17.81,-26.148 9.46,-39.719l-30.26,-49.178Z" style="fill:#dba7c9;stroke:#003b66;stroke-width:35.26px;"/></g><g><path d="M1283.98,135.911c0,-15.015 -12.19,-27.205 -27.205,-27.205l-54.41,-0c-15.015,-0 -27.205,12.19 -27.205,27.205l-0,872.929c-0,15.015 12.19,27.205 27.205,27.205l54.41,0c15.015,0 27.205,-12.19 27.205,-27.205l0,-872.929Z" style="fill:#b6a7db;stroke:#003b66;stroke-width:35.26px;"/><path d="M1360.21,764.186c-0,11.612 -9.428,21.04 -21.04,21.04l-220.864,-0c-11.612,-0 -21.04,-9.428 -21.04,-21.04l0,-42.079c0,-11.612 9.428,-21.04 21.04,-21.04l220.864,0c11.612,0 21.04,9.428 21.04,21.04l-0,42.079Z" style="fill:#a7dbda;stroke:#003b66;stroke-width:35.26px;"/></g></g></svg>