<?xml version="1.0" encoding="UTF-8" standalone="no"?><!DOCTYPE svg PUBLIC "-//W3C//DTD SVG 1.1//EN" "http://www.w3.org/Graphics/SVG/1.1/DTD/svg11.dtd"><svg width="100%" height="100%" viewBox="0 0 2271 1110" version="1.1" xmlns="http://www.w3.org/2000/svg" xmlns:xlink="http://www.w3.org/1999/xlink" xml:space="preserve" xmlns:serif="http://www.serif.com/" style="fill-rule:evenodd;clip-rule:evenodd;stroke-linecap:round;stroke-linejoin:round;stroke-miterlimit:1.5;"><g><g><path d="M1553.71,384.367c-0,-18.227 -14.798,-33.025 -33.025,-33.025l-249.924,0c-18.227,0 -33.025,14.798 -33.025,33.025l0,617.187c0,18.227 14.798,33.024 33.025,33.024l249.924,0c18.227,0 33.025,-14.797 33.025,-33.024l-0,-617.187Z" style="fill:#ffdb8a;stroke:#003b66;stroke-width:34.11px;"/><rect x="1212.64" y="352.119" width="114.439" height="683.926" style="fill:#f58643;stroke:#003b66;stroke-width:35.26px;"/></g><g><path d="M2174.24,671.373c-0,-53.363 -43.324,-96.688 -96.688,-96.688l-193.375,0c-53.363,0 -96.688,43.325 -96.688,96.688l0,267.985c0,53.363 43.325,96.687 96.688,96.687l193.375,0c53.364,0 96.688,-43.324 96.688,-96.687l-0,-267.985Z" style="fill:#f543ca;stroke:#003b66;stroke-width:35.26px;"/></g><g><path d="M942.285,686.648c0,-8.902 -7.227,-16.13 -16.129,-16.13l-32.258,0c-8.902,0 -16.13,7.228 -16.13,16.13l0,333.268c0,8.902 7.228,16.129 16.13,16.129l32.258,0c8.902,0 16.129,-7.227 16.129,-16.129l0,-333.268Z" style="fill:#f5436c;stroke:#003b66;stroke-width:35.26px;"/><path d="M1140.91,759.622c-0,-9.247 -7.508,-16.754 -16.755,-16.754l-33.508,-0c-9.247,-0 -16.755,7.507 -16.755,16.754l0,259.669c0,9.247 7.508,16.754 16.755,16.754l33.508,0c9.247,0 16.755,-7.507 16.755,-16.754l-0,-259.669Z" style="fill:#f5436c;stroke:#003b66;stroke-width:35.26px;"/><path d="M1132.51,1013.96c0,12.16 -9.873,22.033 -22.033,22.033l-206.306,-0c-12.161,-0 -22.033,-9.873 -22.033,-22.033l-0,-44.067c-0,-12.16 9.872,-22.033 22.033,-22.033l206.306,0c12.16,0 22.033,9.873 22.033,22.033l0,44.067Z" style="fill:#a7dbda;stroke:#003b66;stroke-width:35.26px;"/></g><g><path d="M279.643,323.951c0,-24.173 -19.625,-43.798 -43.799,-43.798l-87.597,-0c-24.173,-0 -43.799,19.625 -43.799,43.798l0,338.593c0,24.174 19.626,43.799 43.799,43.799l87.597,0c24.174,0 43.799,-19.625 43.799,-43.799l0,-338.593Z" style="fill:#f5436c;stroke:#003b66;stroke-width:35.26px;"/><path d="M615.9,718.607c-0,-10.178 -16.559,-18.442 -36.954,-18.442l-73.909,-0c-20.395,-0 -36.954,8.264 -36.954,18.442l-0,294.293c-0,10.179 16.559,18.443 36.954,18.443l73.909,-0c20.395,-0 36.954,-8.264 36.954,-18.443l-0,-294.293Z" style="fill:#b2dba7;stroke:#003b66;stroke-width:35.26px;"/><path d="M109.97,607.998l-0,65.786c-0,19.52 15.824,35.345 35.345,35.345c114.872,0 470.299,0 470.299,0l0,-3.937c-0,-53.679 -43.515,-97.194 -97.194,-97.194c-146.879,0 -408.45,0 -408.45,0Z" style="fill:#a7d2db;stroke:#003b66;stroke-width:35.26px;"/><path d="M586.365,398.825l0,-118.704l-479.614,0l-0,118.704l479.614,-0Z" style="fill:#dba7a7;stroke:#003b66;stroke-width:35.26px;"/><path d="M125.336,930.317c-14.205,0 -25.738,11.844 -25.738,26.432l0,52.864c0,14.588 11.533,26.432 25.738,26.432l449.627,0c14.206,0 25.739,-11.844 25.739,-26.432l-0,-52.864c-0,-14.588 -11.533,-26.432 -25.739,-26.432l-449.627,0Z" style="fill:#b6a7db;stroke:#003b66;stroke-width:35.26px;"/></g><g><path d="M789.105,454.886c0,-11.711 -9.508,-21.219 -21.219,-21.219l-42.44,-0c-11.711,-0 -21.219,9.508 -21.219,21.219l-0,559.94c-0,11.711 9.508,21.219 21.219,21.219l42.44,0c11.711,0 21.219,-9.508 21.219,-21.219l0,-559.94Z" style="fill:#a7d2db;stroke:#003b66;stroke-width:35.26px;"/><path d="M860.229,552.745c-1.986,-8.376 -10.398,-13.564 -18.775,-11.578l-180.258,42.737c-8.376,1.986 -13.564,10.399 -11.578,18.775l7.196,30.353c1.986,8.376 10.399,13.564 18.775,11.579l180.258,-42.738c8.376,-1.986 13.565,-10.398 11.579,-18.774l-7.197,-30.354Z" style="fill:#aaa7db;stroke:#003b66;stroke-width:35.26px;"/></g><g><path d="M1715.64,241.119c0,-8.691 -7.056,-15.746 -15.747,-15.746l-31.493,-0c-8.691,-0 -15.747,7.055 -15.747,15.746l0,779.18c0,8.69 7.056,15.746 15.747,15.746l31.493,0c8.691,0 15.747,-7.056 15.747,-15.746l0,-779.18Z" style="fill:#b6a7db;stroke:#003b66;stroke-width:35.26px;"/></g></g><rect id="Artboard1" x="-0" y="0" width="2270.1" height="1109.19" style="fill:none;"/></svg>