<?xml version="1.0" encoding="UTF-8" standalone="no"?><!DOCTYPE svg PUBLIC "-//W3C//DTD SVG 1.1//EN" "http://www.w3.org/Graphics/SVG/1.1/DTD/svg11.dtd"><svg width="100%" height="100%" viewBox="0 0 2297 950" version="1.1" xmlns="http://www.w3.org/2000/svg" xmlns:xlink="http://www.w3.org/1999/xlink" xml:space="preserve" xmlns:serif="http://www.serif.com/" style="fill-rule:evenodd;clip-rule:evenodd;stroke-linecap:round;stroke-linejoin:round;stroke-miterlimit:1.5;"><g><g><path d="M1581.99,244.276c-0,-18.227 -14.798,-33.025 -33.025,-33.025l-249.924,0c-18.227,0 -33.025,14.798 -33.025,33.025l0,617.187c0,18.226 14.798,33.024 33.025,33.024l249.924,0c18.227,0 33.025,-14.798 33.025,-33.024l-0,-617.187Z" style="fill:#ffdb8a;stroke:#003b66;stroke-width:34.11px;"/><rect x="1240.92" y="212.028" width="114.439" height="683.926" style="fill:#f58643;stroke:#003b66;stroke-width:35.26px;"/></g><g><path d="M2202.53,531.282c-0,-53.363 -43.324,-96.688 -96.688,-96.688l-193.375,0c-53.363,0 -96.688,43.325 -96.688,96.688l0,267.984c0,53.364 43.325,96.688 96.688,96.688l193.375,0c53.364,0 96.688,-43.324 96.688,-96.688l-0,-267.984Z" style="fill:#f543ca;stroke:#003b66;stroke-width:35.26px;"/></g><g><path d="M970.57,546.556c0,-8.902 -7.227,-16.129 -16.129,-16.129l-32.258,0c-8.902,0 -16.13,7.227 -16.13,16.129l0,333.269c0,8.902 7.228,16.129 16.13,16.129l32.258,0c8.902,0 16.129,-7.227 16.129,-16.129l0,-333.269Z" style="fill:#f5436c;stroke:#003b66;stroke-width:35.26px;"/><path d="M1169.19,619.531c-0,-9.247 -7.508,-16.754 -16.755,-16.754l-33.508,-0c-9.247,-0 -16.755,7.507 -16.755,16.754l0,259.669c0,9.247 7.508,16.754 16.755,16.754l33.508,0c9.247,0 16.755,-7.507 16.755,-16.754l-0,-259.669Z" style="fill:#f5436c;stroke:#003b66;stroke-width:35.26px;"/><path d="M1160.79,873.873c0,12.16 -9.873,22.033 -22.033,22.033l-206.306,-0c-12.161,-0 -22.033,-9.873 -22.033,-22.033l-0,-44.067c-0,-12.16 9.872,-22.033 22.033,-22.033l206.306,-0c12.16,-0 22.033,9.873 22.033,22.033l0,44.067Z" style="fill:#a7dbda;stroke:#003b66;stroke-width:35.26px;"/></g><g><path d="M307.928,183.86c0,-24.173 -19.625,-43.799 -43.799,-43.799l-87.597,0c-24.173,0 -43.799,19.626 -43.799,43.799l0,338.593c0,24.173 19.626,43.799 43.799,43.799l87.597,-0c24.174,-0 43.799,-19.626 43.799,-43.799l0,-338.593Z" style="fill:#f5436c;stroke:#003b66;stroke-width:35.26px;"/><path d="M644.185,578.516c-0,-10.179 -16.559,-18.442 -36.954,-18.442l-73.909,-0c-20.395,-0 -36.954,8.263 -36.954,18.442l-0,294.293c-0,10.179 16.559,18.442 36.954,18.442l73.909,0c20.395,0 36.954,-8.263 36.954,-18.442l-0,-294.293Z" style="fill:#b2dba7;stroke:#003b66;stroke-width:35.26px;"/><path d="M138.255,467.907l-0,65.785c-0,19.521 15.824,35.346 35.345,35.346c114.872,-0 470.299,-0 470.299,-0l0,-3.937c-0,-53.679 -43.515,-97.194 -97.194,-97.194c-146.879,-0 -408.45,-0 -408.45,-0Z" style="fill:#a7d2db;stroke:#003b66;stroke-width:35.26px;"/><path d="M614.65,258.734l0,-118.704l-479.614,-0l-0,118.704l479.614,-0Z" style="fill:#dba7a7;stroke:#003b66;stroke-width:35.26px;"/><path d="M153.621,790.226c-14.205,0 -25.738,11.844 -25.738,26.432l0,52.864c0,14.588 11.533,26.432 25.738,26.432l449.627,0c14.206,0 25.739,-11.844 25.739,-26.432l-0,-52.864c-0,-14.588 -11.533,-26.432 -25.739,-26.432l-449.627,0Z" style="fill:#b6a7db;stroke:#003b66;stroke-width:35.26px;"/></g><g><path d="M817.39,314.795c0,-11.711 -9.508,-21.219 -21.219,-21.219l-42.44,-0c-11.711,-0 -21.219,9.508 -21.219,21.219l-0,559.939c-0,11.712 9.508,21.22 21.219,21.22l42.44,0c11.711,0 21.219,-9.508 21.219,-21.22l0,-559.939Z" style="fill:#a7d2db;stroke:#003b66;stroke-width:35.26px;"/><path d="M888.514,412.654c-1.986,-8.376 -10.398,-13.564 -18.775,-11.578l-180.258,42.737c-8.376,1.986 -13.564,10.398 -11.578,18.775l7.196,30.353c1.986,8.376 10.399,13.564 18.775,11.578l180.258,-42.737c8.376,-1.986 13.565,-10.398 11.579,-18.775l-7.197,-30.353Z" style="fill:#aaa7db;stroke:#003b66;stroke-width:35.26px;"/></g><g><path d="M1743.93,101.028c0,-8.691 -7.056,-15.747 -15.747,-15.747l-31.493,0c-8.691,0 -15.747,7.056 -15.747,15.747l0,779.179c0,8.691 7.056,15.747 15.747,15.747l31.493,0c8.691,0 15.747,-7.056 15.747,-15.747l0,-779.179Z" style="fill:#b6a7db;stroke:#003b66;stroke-width:35.26px;"/></g></g><rect id="Artboard1" x="0" y="0" width="2296.24" height="949.627" style="fill:none;"/></svg>